<svg width="98" height="86" viewBox="0 0 98 86" fill="none" xmlns="http://www.w3.org/2000/svg">
<defs>
<linearGradient id="paint0_linear" x1="35.5567" y1="58.1672" x2="49.0947" y2="58.1672" gradientUnits="userSpaceOnUse">
<stop stop-color="#808080" stop-opacity="0.25"/>
<stop offset="0.54" stop-color="#808080" stop-opacity="0.12"/>
<stop offset="1" stop-color="#808080" stop-opacity="0.1"/>
</linearGradient>
<linearGradient id="paint1_linear" x1="2477.41" y1="19915" x2="2618.29" y2="19915" gradientUnits="userSpaceOnUse">
<stop stop-color="#808080" stop-opacity="0.25"/>
<stop offset="0.54" stop-color="#808080" stop-opacity="0.12"/>
<stop offset="1" stop-color="#808080" stop-opacity="0.1"/>
</linearGradient>
<linearGradient id="paint2_linear" x1="2892.3" y1="14318" x2="3023.25" y2="14318" gradientUnits="userSpaceOnUse">
<stop stop-color="#808080" stop-opacity="0.25"/>
<stop offset="0.54" stop-color="#808080" stop-opacity="0.12"/>
<stop offset="1" stop-color="#808080" stop-opacity="0.1"/>
</linearGradient>
<linearGradient id="paint3_linear" x1="38747.9" y1="24967.3" x2="38747.9" y2="4702.99" gradientUnits="userSpaceOnUse">
<stop stop-color="#808080" stop-opacity="0.25"/>
<stop offset="0.54" stop-color="#808080" stop-opacity="0.12"/>
<stop offset="1" stop-color="#808080" stop-opacity="0.1"/>
</linearGradient>
<linearGradient id="paint4_linear" x1="10067.7" y1="5150.23" x2="10067.7" y2="4511.69" gradientUnits="userSpaceOnUse">
<stop stop-color="#808080" stop-opacity="0.25"/>
<stop offset="0.54" stop-color="#808080" stop-opacity="0.12"/>
<stop offset="1" stop-color="#808080" stop-opacity="0.1"/>
</linearGradient>
<linearGradient id="paint5_linear" x1="16345" y1="20630.6" x2="16345" y2="13861.8" gradientUnits="userSpaceOnUse">
<stop stop-color="#808080" stop-opacity="0.25"/>
<stop offset="0.54" stop-color="#808080" stop-opacity="0.12"/>
<stop offset="1" stop-color="#808080" stop-opacity="0.1"/>
</linearGradient>
<clipPath id="clip0">
<rect width="98" height="86" fill="white"/>
</clipPath>
</defs>
<g clip-path="url(#clip0)">
<g opacity="0.5">
<path opacity="0.5" d="M14.8903 15.3186H14.5015V17.5506H14.8903V15.3186Z" fill="#47E6B1"/>
<path opacity="0.5" d="M15.7979 16.6315V16.2377H13.5943V16.6315H15.7979Z" fill="#47E6B1"/>
</g>
<g opacity="0.5">
<path opacity="0.5" d="M28.7133 63.8944H28.3245V66.1264H28.7133V63.8944Z" fill="#47E6B1"/>
<path opacity="0.5" d="M29.6194 65.2074V64.8134H27.4158V65.2074H29.6194Z" fill="#47E6B1"/>
</g>
<g opacity="0.5">
<path opacity="0.5" d="M9.36421 37.9683H8.97534V40.2003H9.36421V37.9683Z" fill="#47E6B1"/>
<path opacity="0.5" d="M10.2717 39.2812V38.8874H8.06813V39.2812H10.2717Z" fill="#47E6B1"/>
</g>
<g opacity="0.5">
<path opacity="0.5" d="M77.446 0H77.0571V2.23197H77.446V0Z" fill="#47E6B1"/>
<path opacity="0.5" d="M78.3533 1.31293V0.919052L76.1497 0.919052V1.31293H78.3533Z" fill="#47E6B1"/>
</g>
<g opacity="0.5">
<path opacity="0.5" d="M11.8298 5.55095H11.4409V7.78292H11.8298V5.55095Z" fill="#47E6B1"/>
<path opacity="0.5" d="M12.7358 6.86388V6.47H10.5322V6.86388H12.7358Z" fill="#47E6B1"/>
</g>
<path opacity="0.5" d="M19.2799 55.9293C19.1728 55.882 19.0866 55.7964 19.0377 55.6889C18.9888 55.5814 18.9807 55.4594 19.0148 55.3462C19.0203 55.3289 19.0238 55.311 19.0253 55.293C19.0331 55.2393 19.0225 55.1845 18.9952 55.1378C18.968 55.0911 18.9256 55.0553 18.8754 55.0365C18.8252 55.0176 18.7701 55.0168 18.7193 55.0342C18.6686 55.0516 18.6253 55.0862 18.5967 55.1321C18.586 55.1468 18.577 55.1626 18.5699 55.1794C18.5231 55.2879 18.4386 55.3752 18.3325 55.4247C18.2263 55.4742 18.1059 55.4824 17.9941 55.4479C17.9771 55.4423 17.9595 55.4388 17.9416 55.4373C17.8886 55.4293 17.8345 55.4401 17.7884 55.4677C17.7423 55.4953 17.707 55.5382 17.6884 55.5891C17.6698 55.64 17.669 55.6958 17.6862 55.7472C17.7034 55.7986 17.7375 55.8424 17.7828 55.8714C17.7973 55.8822 17.8129 55.8914 17.8295 55.8986C17.9366 55.9459 18.0228 56.0315 18.0716 56.139C18.1205 56.2465 18.1287 56.3685 18.0946 56.4817C18.0891 56.499 18.0855 56.5168 18.0841 56.5349C18.0762 56.5886 18.0868 56.6434 18.1141 56.6901C18.1414 56.7368 18.1837 56.7726 18.2339 56.7914C18.2842 56.8103 18.3393 56.8111 18.39 56.7937C18.4408 56.7762 18.4841 56.7417 18.5126 56.6958C18.5234 56.6811 18.5324 56.6653 18.5395 56.6485C18.5863 56.54 18.6707 56.4527 18.7769 56.4032C18.883 56.3537 19.0034 56.3454 19.1152 56.38C19.1323 56.3856 19.1499 56.3891 19.1678 56.3906C19.2208 56.3986 19.2748 56.3878 19.3209 56.3602C19.367 56.3325 19.4024 56.2897 19.421 56.2388C19.4396 56.1879 19.4404 56.1321 19.4232 56.0807C19.406 56.0293 19.3719 55.9855 19.3266 55.9565C19.3121 55.9457 19.2964 55.9365 19.2799 55.9293Z" fill="#4D8AF0"/>
<path opacity="0.5" d="M17.3534 77.1431C17.2463 77.0957 17.1601 77.0102 17.1112 76.9027C17.0624 76.7951 17.0542 76.6732 17.0883 76.56C17.0938 76.5427 17.0973 76.5248 17.0988 76.5067C17.1067 76.4531 17.0961 76.3983 17.0688 76.3516C17.0415 76.3049 16.9992 76.2691 16.9489 76.2503C16.8987 76.2314 16.8436 76.2306 16.7929 76.248C16.7421 76.2654 16.6988 76.3 16.6702 76.3459C16.6595 76.3605 16.6505 76.3764 16.6434 76.3932C16.5969 76.5016 16.5127 76.589 16.4068 76.6387C16.3008 76.6884 16.1806 76.697 16.0688 76.6629C16.0518 76.6573 16.0342 76.6537 16.0163 76.6522C15.9633 76.6443 15.9092 76.655 15.8631 76.6827C15.817 76.7103 15.7817 76.7532 15.7631 76.804C15.7445 76.8549 15.7437 76.9107 15.7609 76.9621C15.7781 77.0135 15.8122 77.0574 15.8575 77.0863C15.872 77.0972 15.8876 77.1063 15.9042 77.1135C16.0113 77.1609 16.0975 77.2464 16.1463 77.354C16.1952 77.4615 16.2034 77.5834 16.1693 77.6966C16.1638 77.7139 16.1602 77.7318 16.1588 77.7499C16.1509 77.8035 16.1615 77.8583 16.1888 77.905C16.2161 77.9517 16.2584 77.9875 16.3086 78.0063C16.3589 78.0252 16.414 78.026 16.4647 78.0086C16.5155 77.9912 16.5588 77.9566 16.5873 77.9107C16.5981 77.8961 16.6071 77.8802 16.6142 77.8634C16.661 77.7549 16.7454 77.6676 16.8516 77.6181C16.9577 77.5686 17.0781 77.5604 17.1899 77.5949C17.207 77.6005 17.2246 77.6041 17.2425 77.6056C17.2955 77.6135 17.3495 77.6028 17.3956 77.5751C17.4417 77.5475 17.4771 77.5046 17.4957 77.4538C17.5143 77.4029 17.5151 77.3471 17.4979 77.2957C17.4807 77.2443 17.4466 77.2004 17.4013 77.1715C17.3865 77.1601 17.3704 77.1506 17.3534 77.1431Z" fill="#4D8AF0"/>
<path opacity="0.5" d="M88.2374 30.1854C88.1303 30.138 88.0442 30.0525 87.9953 29.945C87.9464 29.8374 87.9382 29.7155 87.9724 29.6023C87.9779 29.585 87.9814 29.5671 87.9829 29.549C87.9907 29.4954 87.9801 29.4406 87.9528 29.3939C87.9255 29.3472 87.8832 29.3114 87.833 29.2926C87.7828 29.2737 87.7276 29.2729 87.6769 29.2903C87.6262 29.3077 87.5829 29.3423 87.5543 29.3882C87.5436 29.4029 87.5345 29.4187 87.5274 29.4355C87.4809 29.5439 87.3967 29.6313 87.2908 29.681C87.1849 29.7307 87.0646 29.7393 86.9529 29.7052C86.9358 29.6996 86.9182 29.696 86.9003 29.6945C86.8473 29.6866 86.7933 29.6973 86.7472 29.725C86.7011 29.7526 86.6657 29.7955 86.6471 29.8463C86.6285 29.8972 86.6277 29.953 86.6449 30.0044C86.6621 30.0558 86.6962 30.0997 86.7415 30.1286C86.756 30.1395 86.7717 30.1486 86.7882 30.1558C86.8953 30.2032 86.9815 30.2888 87.0304 30.3963C87.0793 30.5038 87.0874 30.6257 87.0533 30.7389C87.0478 30.7562 87.0443 30.7741 87.0428 30.7922C87.035 30.8459 87.0456 30.9006 87.0729 30.9473C87.1001 30.994 87.1425 31.0298 87.1927 31.0486C87.2429 31.0675 87.298 31.0683 87.3488 31.0509C87.3995 31.0335 87.4428 30.9989 87.4714 30.953C87.4821 30.9384 87.4911 30.9225 87.4982 30.9057C87.545 30.7972 87.6295 30.71 87.7356 30.6605C87.8418 30.6109 87.9622 30.6027 88.0739 30.6372C88.091 30.6428 88.1086 30.6464 88.1265 30.6479C88.1795 30.6558 88.2336 30.6451 88.2797 30.6174C88.3258 30.5898 88.3611 30.5469 88.3797 30.4961C88.3983 30.4452 88.3991 30.3894 88.3819 30.338C88.3647 30.2866 88.3306 30.2427 88.2853 30.2138C88.2705 30.2024 88.2545 30.1929 88.2374 30.1854Z" fill="#4D8AF0"/>
<path opacity="0.5" d="M85.0297 52.5808C84.9226 52.5334 84.8364 52.4479 84.7875 52.3404C84.7386 52.2329 84.7305 52.1109 84.7646 51.9977C84.7701 51.9804 84.7736 51.9625 84.7751 51.9445C84.7829 51.8908 84.7723 51.836 84.745 51.7893C84.7177 51.7426 84.6754 51.7068 84.6252 51.688C84.575 51.6691 84.5199 51.6683 84.4691 51.6858C84.4184 51.7032 84.3751 51.7377 84.3465 51.7836C84.3358 51.7983 84.3268 51.8141 84.3196 51.8309C84.2729 51.9394 84.1884 52.0267 84.0822 52.0762C83.9761 52.1257 83.8557 52.1339 83.7439 52.0994C83.7269 52.0938 83.7092 52.0903 83.6914 52.0888C83.6384 52.0808 83.5843 52.0916 83.5382 52.1192C83.4921 52.1468 83.4568 52.1897 83.4381 52.2406C83.4195 52.2914 83.4187 52.3473 83.4359 52.3987C83.4531 52.45 83.4872 52.4939 83.5325 52.5228C83.547 52.5337 83.5627 52.5428 83.5792 52.55C83.6863 52.5974 83.7725 52.683 83.8214 52.7905C83.8703 52.898 83.8784 53.02 83.8443 53.1332C83.8388 53.1504 83.8353 53.1683 83.8338 53.1864C83.826 53.2401 83.8366 53.2948 83.8639 53.3415C83.8912 53.3882 83.9335 53.424 83.9837 53.4429C84.0339 53.4617 84.0891 53.4625 84.1398 53.4451C84.1905 53.4277 84.2338 53.3931 84.2624 53.3472C84.2731 53.3326 84.2822 53.3167 84.2893 53.2999C84.336 53.1915 84.4205 53.1042 84.5267 53.0547C84.6328 53.0052 84.7532 52.9969 84.865 53.0314C84.8821 53.037 84.8997 53.0406 84.9176 53.0421C84.9705 53.05 85.0246 53.0393 85.0707 53.0116C85.1168 52.984 85.1522 52.9412 85.1708 52.8903C85.1894 52.8394 85.1902 52.7836 85.173 52.7322C85.1558 52.6808 85.1217 52.637 85.0764 52.608C85.0619 52.5971 85.0462 52.588 85.0297 52.5808Z" fill="#4D8AF0"/>
<path opacity="0.5" d="M87.4197 7.94968C87.3126 7.90233 87.2265 7.81675 87.1776 7.70924C87.1287 7.60172 87.1205 7.47977 87.1547 7.36656C87.1602 7.34928 87.1637 7.33142 87.1652 7.31333C87.173 7.25965 87.1624 7.20487 87.1351 7.15818C87.1078 7.11148 87.0655 7.07571 87.0153 7.05686C86.9651 7.038 86.9099 7.03721 86.8592 7.05462C86.8085 7.07202 86.7652 7.10657 86.7366 7.15246C86.7259 7.16713 86.7169 7.18301 86.7097 7.19978C86.663 7.30826 86.5785 7.39555 86.4724 7.44505C86.3662 7.49456 86.2458 7.50282 86.134 7.46828C86.117 7.4627 86.0993 7.45913 86.0815 7.45763C86.0285 7.44968 85.9744 7.46043 85.9283 7.48807C85.8822 7.51571 85.8469 7.55856 85.8283 7.60944C85.8097 7.66032 85.8089 7.71614 85.8261 7.76753C85.8433 7.81893 85.8774 7.86277 85.9227 7.89172C85.9372 7.90259 85.9528 7.91172 85.9694 7.91893C86.0765 7.96629 86.1627 8.05186 86.2115 8.15937C86.2604 8.26689 86.2686 8.38885 86.2345 8.50206C86.229 8.51933 86.2254 8.53719 86.224 8.55528C86.2161 8.60896 86.2267 8.66374 86.254 8.71043C86.2813 8.75713 86.3236 8.7929 86.3738 8.81176C86.4241 8.83061 86.4792 8.8314 86.5299 8.814C86.5806 8.79659 86.6239 8.76204 86.6525 8.71615C86.6632 8.70148 86.6723 8.6856 86.6794 8.66883C86.7261 8.56036 86.8106 8.47306 86.9168 8.42356C87.0229 8.37406 87.1433 8.36579 87.2551 8.40034C87.2721 8.40591 87.2898 8.40949 87.3076 8.41098C87.3606 8.41893 87.4147 8.40818 87.4608 8.38054C87.5069 8.3529 87.5422 8.31005 87.5608 8.25917C87.5795 8.20829 87.5802 8.15247 87.563 8.10108C87.5459 8.04969 87.5118 8.00584 87.4665 7.97689C87.452 7.96602 87.4363 7.9569 87.4197 7.94968Z" fill="#4D8AF0"/>
<path opacity="0.5" d="M94.9195 66.15C94.8124 66.1027 94.7262 66.0171 94.6774 65.9096C94.6285 65.8021 94.6203 65.6801 94.6544 65.5669C94.6599 65.5496 94.6635 65.5318 94.6649 65.5137C94.6728 65.46 94.6622 65.4052 94.6349 65.3585C94.6076 65.3118 94.5653 65.2761 94.5151 65.2572C94.4648 65.2383 94.4097 65.2376 94.359 65.255C94.3082 65.2724 94.2649 65.3069 94.2364 65.3528C94.2256 65.3675 94.2166 65.3834 94.2095 65.4001C94.1628 65.5086 94.0783 65.5959 93.9721 65.6454C93.866 65.6949 93.7456 65.7032 93.6338 65.6686C93.6167 65.663 93.5991 65.6595 93.5812 65.658C93.5282 65.65 93.4742 65.6608 93.4281 65.6884C93.382 65.7161 93.3466 65.7589 93.328 65.8098C93.3094 65.8607 93.3086 65.9165 93.3258 65.9679C93.343 66.0193 93.3771 66.0631 93.4224 66.0921C93.4369 66.1029 93.4526 66.1121 93.4691 66.1193C93.5762 66.1666 93.6624 66.2522 93.7113 66.3597C93.7602 66.4672 93.7683 66.5892 93.7342 66.7024C93.7287 66.7197 93.7252 66.7375 93.7237 66.7556C93.7159 66.8093 93.7265 66.8641 93.7538 66.9108C93.781 66.9575 93.8234 66.9932 93.8736 67.0121C93.9238 67.0309 93.9789 67.0317 94.0297 67.0143C94.0804 66.9969 94.1237 66.9624 94.1523 66.9165C94.163 66.9018 94.172 66.8859 94.1791 66.8692C94.2259 66.7607 94.3104 66.6734 94.4165 66.6239C94.5227 66.5744 94.6431 66.5661 94.7549 66.6007C94.7719 66.6063 94.7896 66.6098 94.8074 66.6113C94.8604 66.6193 94.9145 66.6085 94.9606 66.5809C95.0067 66.5532 95.042 66.5104 95.0606 66.4595C95.0792 66.4086 95.08 66.3528 95.0628 66.3014C95.0456 66.25 95.0115 66.2062 94.9662 66.1772C94.9517 66.1664 94.9361 66.1572 94.9195 66.15Z" fill="#4D8AF0"/>
<path opacity="0.5" d="M0.777741 31.2783C1.20728 31.2783 1.55548 30.9256 1.55548 30.4906C1.55548 30.0555 1.20728 29.7028 0.777741 29.7028C0.348206 29.7028 0 30.0555 0 30.4906C0 30.9256 0.348206 31.2783 0.777741 31.2783Z" fill="#F55F44"/>
<path opacity="0.5" d="M0.777741 31.2783C1.20728 31.2783 1.55548 30.9256 1.55548 30.4906C1.55548 30.0555 1.20728 29.7028 0.777741 29.7028C0.348206 29.7028 0 30.0555 0 30.4906C0 30.9256 0.348206 31.2783 0.777741 31.2783Z" fill="#F55F44"/>
<path opacity="0.5" d="M87.5636 18.0675C87.9932 18.0675 88.3414 17.7148 88.3414 17.2797C88.3414 16.8447 87.9932 16.492 87.5636 16.492C87.1341 16.492 86.7859 16.8447 86.7859 17.2797C86.7859 17.7148 87.1341 18.0675 87.5636 18.0675Z" fill="#F55F44"/>
<path opacity="0.5" d="M87.5636 18.0675C87.9932 18.0675 88.3414 17.7148 88.3414 17.2797C88.3414 16.8447 87.9932 16.492 87.5636 16.492C87.1341 16.492 86.7859 16.8447 86.7859 17.2797C86.7859 17.7148 87.1341 18.0675 87.5636 18.0675Z" fill="#F55F44"/>
<path opacity="0.5" d="M52.1905 47.7218C52.6742 47.7218 53.0664 47.3246 53.0664 46.8347C53.0664 46.3447 52.6742 45.9476 52.1905 45.9476C51.7068 45.9476 51.3147 46.3447 51.3147 46.8347C51.3147 47.3246 51.7068 47.7218 52.1905 47.7218Z" fill="#F55F44"/>
<path opacity="0.5" d="M52.1905 47.7218C52.6742 47.7218 53.0664 47.3246 53.0664 46.8347C53.0664 46.3447 52.6742 45.9476 52.1905 45.9476C51.7068 45.9476 51.3147 46.3447 51.3147 46.8347C51.3147 47.3246 51.7068 47.7218 52.1905 47.7218Z" fill="#F55F44"/>
<path opacity="0.5" d="M50.1905 29.0177C50.6742 29.0177 51.0664 28.6206 51.0664 28.1306C51.0664 27.6407 50.6742 27.2435 50.1905 27.2435C49.7068 27.2435 49.3147 27.6407 49.3147 28.1306C49.3147 28.6206 49.7068 29.0177 50.1905 29.0177Z" fill="#F55F44"/>
<path opacity="0.5" d="M41.1905 29.0177C41.6742 29.0177 42.0664 28.6206 42.0664 28.1306C42.0664 27.6407 41.6742 27.2435 41.1905 27.2435C40.7068 27.2435 40.3147 27.6407 40.3147 28.1306C40.3147 28.6206 40.7068 29.0177 41.1905 29.0177Z" fill="#F55F44"/>
<path opacity="0.5" d="M52.1905 47.7218C52.6742 47.7218 53.0664 47.3246 53.0664 46.8347C53.0664 46.3447 52.6742 45.9476 52.1905 45.9476C51.7068 45.9476 51.3147 46.3447 51.3147 46.8347C51.3147 47.3246 51.7068 47.7218 52.1905 47.7218Z" fill="#F55F44"/>
<path opacity="0.5" d="M52.1905 47.7218C52.6742 47.7218 53.0664 47.3246 53.0664 46.8347C53.0664 46.3447 52.6742 45.9476 52.1905 45.9476C51.7068 45.9476 51.3147 46.3447 51.3147 46.8347C51.3147 47.3246 51.7068 47.7218 52.1905 47.7218Z" fill="#F55F44"/>
<path opacity="0.5" d="M50.1905 29.0177C50.6742 29.0177 51.0664 28.6206 51.0664 28.1306C51.0664 27.6407 50.6742 27.2435 50.1905 27.2435C49.7068 27.2435 49.3147 27.6407 49.3147 28.1306C49.3147 28.6206 49.7068 29.0177 50.1905 29.0177Z" fill="#F55F44"/>
<path opacity="0.5" d="M41.1905 29.0177C41.6742 29.0177 42.0664 28.6206 42.0664 28.1306C42.0664 27.6407 41.6742 27.2435 41.1905 27.2435C40.7068 27.2435 40.3147 27.6407 40.3147 28.1306C40.3147 28.6206 40.7068 29.0177 41.1905 29.0177Z" fill="#F55F44"/>
<path opacity="0.5" d="M97.2233 41.7533C97.6528 41.7533 98.001 41.4006 98.001 40.9656C98.001 40.5305 97.6528 40.1778 97.2233 40.1778C96.7938 40.1778 96.4456 40.5305 96.4456 40.9656C96.4456 41.4006 96.7938 41.7533 97.2233 41.7533Z" fill="#F55F44"/>
<path opacity="0.5" d="M97.2233 41.7533C97.6528 41.7533 98.001 41.4006 98.001 40.9656C98.001 40.5305 97.6528 40.1778 97.2233 40.1778C96.7938 40.1778 96.4456 40.5305 96.4456 40.9656C96.4456 41.4006 96.7938 41.7533 97.2233 41.7533Z" fill="#F55F44"/>
<path opacity="0.5" d="M95.2233 23.0493C95.6528 23.0493 96.001 22.6966 96.001 22.2615C96.001 21.8264 95.6528 21.4738 95.2233 21.4738C94.7938 21.4738 94.4456 21.8264 94.4456 22.2615C94.4456 22.6966 94.7938 23.0493 95.2233 23.0493Z" fill="#F55F44"/>
<path opacity="0.5" d="M86.2233 23.0493C86.6528 23.0493 87.001 22.6966 87.001 22.2615C87.001 21.8264 86.6528 21.4738 86.2233 21.4738C85.7938 21.4738 85.4456 21.8264 85.4456 22.2615C85.4456 22.6966 85.7938 23.0493 86.2233 23.0493Z" fill="#F55F44"/>
<path opacity="0.5" d="M34.3526 6.47828C34.8363 6.47828 35.2285 6.08111 35.2285 5.59117C35.2285 5.10123 34.8363 4.70406 34.3526 4.70406C33.8689 4.70406 33.4768 5.10123 33.4768 5.59117C33.4768 6.08111 33.8689 6.47828 34.3526 6.47828Z" fill="#47E6B1"/>
<path opacity="0.5" d="M34.3526 6.47828C34.8363 6.47828 35.2285 6.08111 35.2285 5.59117C35.2285 5.10123 34.8363 4.70406 34.3526 4.70406C33.8689 4.70406 33.4768 5.10123 33.4768 5.59117C33.4768 6.08111 33.8689 6.47828 34.3526 6.47828Z" fill="#47E6B1"/>
<path opacity="0.5" d="M84.2541 74.2889C84.6836 74.2889 85.0318 73.9363 85.0318 73.5012C85.0318 73.0661 84.6836 72.7134 84.2541 72.7134C83.8245 72.7134 83.4763 73.0661 83.4763 73.5012C83.4763 73.9363 83.8245 74.2889 84.2541 74.2889Z" fill="#F55F44"/>
<path opacity="0.5" d="M84.2541 74.2889C84.6836 74.2889 85.0318 73.9363 85.0318 73.5012C85.0318 73.0661 84.6836 72.7134 84.2541 72.7134C83.8245 72.7134 83.4763 73.0661 83.4763 73.5012C83.4763 73.9363 83.8245 74.2889 84.2541 74.2889Z" fill="#F55F44"/>
<path opacity="0.5" d="M82.2541 55.5849C82.6836 55.5849 83.0318 55.2322 83.0318 54.7971C83.0318 54.3621 82.6836 54.0094 82.2541 54.0094C81.8245 54.0094 81.4763 54.3621 81.4763 54.7971C81.4763 55.2322 81.8245 55.5849 82.2541 55.5849Z" fill="#F55F44"/>
<path opacity="0.5" d="M73.2541 55.5849C73.6836 55.5849 74.0318 55.2322 74.0318 54.7971C74.0318 54.3621 73.6836 54.0094 73.2541 54.0094C72.8245 54.0094 72.4763 54.3621 72.4763 54.7971C72.4763 55.2322 72.8245 55.5849 73.2541 55.5849Z" fill="#F55F44"/>
<path d="M35.8159 45.1291C35.3558 46.6419 36.0495 48.4303 37.3959 49.2263C37.9611 49.5599 38.6116 49.7278 39.1593 50.0898C40.3493 50.8752 40.8187 52.3785 41.2052 53.7624C41.649 55.3533 42.0939 57.0353 41.6875 58.6356C41.4283 59.6564 40.8386 60.5589 40.5034 61.5572C40.2231 62.3933 40.1255 63.2812 40.2173 64.1594C40.2663 64.6254 40.3808 65.1056 40.6961 65.4534C41.1515 65.9501 41.8849 66.0247 42.5435 66.1441C43.936 66.4108 45.2461 67.0081 46.3666 67.8868C47.4872 68.7656 48.3861 69.9008 48.9896 71.1995" stroke="url(#paint0_linear)" stroke-width="2" stroke-miterlimit="10"/>
<path d="M35.9571 45.1291C35.4969 46.6419 36.1906 48.4303 37.5371 49.2263C38.1023 49.5599 38.7527 49.7278 39.3004 50.0898C40.4904 50.8752 40.9598 52.3785 41.3464 53.7624C41.7901 55.3533 42.235 57.0353 41.8286 58.6356C41.5694 59.6564 40.9797 60.5589 40.6445 61.5572C40.3642 62.3933 40.2666 63.2812 40.3584 64.1594C40.4075 64.6254 40.5219 65.1056 40.8372 65.4534C41.2926 65.9501 42.026 66.0247 42.6846 66.1441C44.0771 66.4108 45.3873 67.0081 46.5078 67.8868C47.6283 68.7656 48.5272 69.9008 49.1308 71.1995" stroke="#535461" stroke-width="2" stroke-miterlimit="10"/>
<path d="M53.3732 33.8214C52.2381 35.4241 51.0598 37.1474 50.9629 39.118C50.8146 42.1448 53.205 44.6204 54.2724 47.4521C54.735 48.6994 54.9444 50.0285 54.888 51.3597C54.8316 52.6909 54.5106 53.9969 53.9442 55.1995C53.4234 56.2901 52.6807 57.3735 52.7765 58.5812C52.8313 59.3181 53.1957 59.9887 53.4888 60.6665C54.2082 62.365 54.5221 64.2115 54.405 66.0559C54.288 67.9004 53.7432 69.6909 52.815 71.2822" stroke="url(#paint1_linear)" stroke-width="2" stroke-miterlimit="10"/>
<path d="M53.5135 33.8214C52.3796 35.43 51.2013 37.1486 51.1021 39.118C50.9537 42.1448 53.3442 44.6204 54.4115 47.4521C54.8741 48.6994 55.0835 50.0285 55.0271 51.3597C54.9707 52.6909 54.6498 53.9969 54.0834 55.1995C53.5626 56.2901 52.8199 57.3735 52.9156 58.5812C52.9705 59.3181 53.3348 59.9887 53.628 60.6665C54.3474 62.365 54.6613 64.2115 54.5442 66.0559C54.4271 67.9004 53.8824 69.6909 52.9542 71.2822" stroke="#535461" stroke-width="2" stroke-miterlimit="10"/>
<path d="M69.2995 48.2375L69.8483 52.7688C69.9207 53.3709 69.9826 54.0274 69.6638 54.5431C69.3614 55.0292 68.7938 55.261 68.3524 55.6206C66.9031 56.8034 67.0351 59.0638 67.5349 60.8782C68.0347 62.6927 68.7541 64.6419 68.0593 66.3878C67.772 67.1081 67.2652 67.7149 66.8915 68.3915C66.2504 69.5476 65.9963 70.8831 66.1674 72.1978" stroke="url(#paint2_linear)" stroke-width="2" stroke-miterlimit="10"/>
<path d="M69.4362 48.2375L69.985 52.7688C70.0574 53.3709 70.1193 54.0274 69.8005 54.5431C69.4981 55.0292 68.9305 55.261 68.4891 55.6206C67.0399 56.8034 67.1718 59.0638 67.6716 60.8782C68.1715 62.6927 68.8908 64.6419 68.196 66.3878C67.9087 67.1081 67.4019 67.7149 67.0282 68.3915C66.3871 69.5476 66.1331 70.8831 66.3042 72.1978" stroke="#535461" stroke-width="2" stroke-miterlimit="10"/>
<g opacity="0.7">
<path opacity="0.7" d="M83.5313 29.6129C83.5303 27.493 83.0342 25.4034 82.0834 23.5149C81.1326 21.6264 79.7541 19.9925 78.0606 18.7468C76.3671 17.5011 74.4067 16.6789 72.3395 16.3475C70.2723 16.016 68.1569 16.1847 66.1664 16.8397C66.276 16.085 66.3325 15.3233 66.3357 14.5604C66.341 11.0788 65.011 7.73128 62.6263 5.22381C60.2416 2.71634 56.9886 1.24499 53.5535 1.1201C50.1184 0.995213 46.7696 2.22655 44.2136 4.5544C41.6576 6.88224 40.094 10.1246 39.8528 13.5976C37.8618 12.9412 35.7456 12.7715 33.6774 13.1024C31.6091 13.4332 29.6476 14.2553 27.9532 15.5012C26.2588 16.7472 24.8796 18.3818 23.9285 20.2712C22.9774 22.1606 22.4814 24.2512 22.481 26.372C22.481 33.1141 27.3856 42.6948 33.7675 44.3922L34.7613 44.967L34.2218 46.8394H37.4168L36.7232 44.9647L37.7123 44.3922C42.6473 43.0804 46.6937 37.0587 48.2784 31.2831C49.146 31.868 50.101 32.3073 51.1067 32.5841L52.1005 33.159L51.5692 35.0267H54.7642L54.0705 33.1519L55.0597 32.5794C55.7927 32.3797 56.4987 32.0893 57.1617 31.7148C58.0153 38.1942 62.5568 46.1049 68.3034 47.6319L69.2972 48.2067L68.7577 50.0791H71.9527L71.2567 48.2044L72.2459 47.6319C78.6324 45.9346 83.5313 36.3502 83.5313 29.6129Z" fill="url(#paint3_linear)"/>
</g>
<path d="M37.9248 46.1463H34.8325L35.3744 44.268H37.2288L37.9248 46.1463Z" fill="#F55F44"/>
<path d="M49.1308 26.3413C49.1308 33.5186 43.3865 44.0326 36.3016 44.0326C29.2167 44.0326 23.4724 33.5174 23.4724 26.3413C23.4724 22.8948 24.8241 19.5895 27.2302 17.1524C29.6362 14.7154 32.8995 13.3463 36.3022 13.3463C39.7049 13.3463 42.9682 14.7154 45.3743 17.1524C47.7803 19.5895 49.132 22.8948 49.132 26.3413H49.1308Z" fill="#F55F44"/>
<path d="M37.229 44.3461H35.3745L34.292 43.7204H38.3115L37.229 44.3461Z" fill="#535461"/>
<path opacity="0.1" d="M31.6643 16.2424C31.6643 16.2424 26.254 19.2172 25.481 25.1667L31.6643 16.2424Z" fill="white"/>
<path d="M54.7024 34.7227H51.6101L52.152 32.8444H54.0064L54.7024 34.7227Z" fill="#4D8AF0"/>
<path d="M65.9084 14.9177C65.9084 22.095 60.1641 32.609 53.0792 32.609C45.9943 32.609 40.25 22.0938 40.25 14.9177C40.25 11.4712 41.6017 8.16584 44.0078 5.72881C46.4138 3.29178 49.6771 1.92267 53.0798 1.92267C56.4825 1.92267 59.7458 3.29178 62.1518 5.72881C64.5579 8.16584 65.9096 11.4712 65.9096 14.9177H65.9084Z" fill="#BF1E2E"/>
<path d="M54.0063 32.9224H52.1519L51.0693 32.2955H55.0889L54.0063 32.9224Z" fill="#535461"/>
<path opacity="0.1" d="M48.4417 4.81879C48.4417 4.81879 43.0314 7.79356 42.2583 13.7431L48.4417 4.81879Z" fill="white"/>
<path d="M71.3384 49.289H68.2461L68.7879 47.4095H70.6424L71.3384 49.289Z" fill="#3AD29F"/>
<path d="M82.5443 29.4828C82.5443 36.6601 76.8001 47.1741 69.7151 47.1741C62.6302 47.1741 56.8848 36.6601 56.8848 29.4828C56.8848 26.0363 58.2365 22.731 60.6425 20.294C63.0486 17.8569 66.3119 16.4878 69.7146 16.4878C73.1172 16.4878 76.3805 17.8569 78.7866 20.294C81.1926 22.731 82.5443 26.0363 82.5443 29.4828Z" fill="#3AD29F"/>
<path d="M70.6425 47.4876H68.7881L67.7056 46.8618H71.7251L70.6425 47.4876Z" fill="#535461"/>
<path opacity="0.1" d="M65.0779 19.3839C65.0779 19.3839 59.6676 22.3587 58.8945 28.3083L65.0779 19.3839Z" fill="white"/>
<g opacity="0.5">
<path opacity="0.5" d="M60.3053 51.5033C59.5615 50.7474 58.4766 50.447 57.2504 50.6564C56.1037 50.8527 54.9557 51.4843 54.0192 52.4306C53.7479 52.7069 53.5199 53.0236 53.343 53.3697C53.1708 53.012 52.9447 52.6835 52.6727 52.3963C51.7525 51.4323 50.6151 50.7829 49.4672 50.57C48.2457 50.3334 47.1561 50.6209 46.3982 51.3637C45.6404 52.1065 45.3297 53.2006 45.5189 54.4449C45.6964 55.6088 46.3013 56.781 47.2227 57.7426C49.1589 59.7664 53.0231 58.9763 53.1865 58.9408L53.2344 58.9301L53.3827 58.9644C53.5462 59.0023 57.3964 59.8598 59.3664 57.8703C60.3007 56.9241 60.9278 55.7637 61.1263 54.6022C61.3423 53.3591 61.0492 52.2603 60.3053 51.5033ZM52.5373 57.7722C51.603 57.8999 49.2757 58.0726 48.1207 56.8649C47.378 56.0878 46.8922 55.1605 46.7533 54.2509C46.6271 53.423 46.8093 52.7133 47.2694 52.2662C47.449 52.0916 47.6637 51.9585 47.8988 51.8758C48.3335 51.7335 48.7975 51.7099 49.2441 51.8072C50.1363 51.9764 51.0378 52.4968 51.7805 53.2739C52.9355 54.4733 52.6926 56.8295 52.5373 57.771V57.7722ZM59.9071 54.3881C59.753 55.2942 59.252 56.2144 58.4953 56.9773C57.3193 58.1601 54.9919 57.9508 54.0636 57.8053C53.9246 56.859 53.7214 54.5064 54.8973 53.3189C55.6541 52.556 56.5638 52.0509 57.4583 51.8995C57.9065 51.81 58.3702 51.8418 58.8024 51.9918C59.0365 52.0786 59.2493 52.2158 59.426 52.3939C59.8768 52.8517 60.0473 53.559 59.9071 54.3869V54.3881Z" fill="url(#paint4_linear)"/>
</g>
<path d="M53.566 58.6829L53.1981 58.761C53.0416 58.7941 49.3445 59.5499 47.4912 57.6137C46.6107 56.6935 46.0315 55.5721 45.8563 54.4579C45.6741 53.2668 45.9731 52.2201 46.6971 51.5092C47.4211 50.7983 48.464 50.5286 49.6329 50.7498C50.7271 50.9568 51.8155 51.5778 52.696 52.4992C54.5481 54.4355 53.6863 58.1554 53.6489 58.3127L53.566 58.6829ZM48.1323 52.0012C47.9072 52.0803 47.7016 52.2078 47.5297 52.375C47.0907 52.8067 46.9155 53.4809 47.0358 54.2746C47.1689 55.144 47.6337 56.0323 48.3449 56.7762C49.4507 57.9319 51.6777 57.7663 52.571 57.6444C52.7193 56.7443 52.9529 54.4946 51.847 53.339C51.1358 52.5962 50.274 52.097 49.4192 51.9362C48.9921 51.8429 48.5482 51.8653 48.1323 52.0012Z" fill="#BF1E2E"/>
<path d="M53.0194 58.6995L52.9377 58.3281C52.9026 58.1696 52.1039 54.4354 53.9887 52.5323C54.8855 51.6274 55.9832 51.0254 57.0809 50.8373C58.2487 50.6362 59.2915 50.9237 60.0004 51.6475C60.7092 52.3714 60.993 53.4218 60.791 54.6046C60.6018 55.7152 60.0039 56.8259 59.107 57.7307C57.2222 59.6339 53.5379 58.813 53.3849 58.7775L53.0194 58.6995ZM58.5664 52.1077C58.1533 51.9643 57.7102 51.9337 57.2818 52.0189C56.4247 52.1656 55.5547 52.6494 54.8295 53.3792C53.7037 54.5159 53.8953 56.7679 54.0319 57.6716C54.9229 57.8088 57.1475 58.0134 58.2721 56.8779C58.9961 56.147 59.4749 55.2669 59.6232 54.394C59.7575 53.6027 59.594 52.925 59.1619 52.4862C58.9925 52.3181 58.7894 52.1891 58.5664 52.1077Z" fill="#BF1E2E"/>
<g opacity="0.5">
<path opacity="0.5" d="M71.0512 57.7047H35.1992V64.9708H37.0618V86H69.1886V64.9708H71.0512V57.7047Z" fill="url(#paint5_linear)"/>
</g>
<path d="M68.782 59.9012H37.468V85.6428H68.782V59.9012Z" fill="#535461"/>
<path d="M56.0744 64.4976H50.1748V85.6416H56.0744V64.4976Z" fill="#BF1E2E"/>
<path opacity="0.1" d="M68.782 58.5221H37.468V64.9578H68.782V58.5221Z" fill="black"/>
<path d="M70.5979 58.062H35.6533V64.4976H70.5979V58.062Z" fill="#535461"/>
<path d="M56.0744 58.062H50.1748V64.4976H56.0744V58.062Z" fill="#BF1E2E"/>
</g>

</svg>
