<svg xmlns="http://www.w3.org/2000/svg" xmlns:xlink="http://www.w3.org/1999/xlink" width="189.358" height="183.194" viewBox="0 0 189.358 183.194">
  <defs>
    <linearGradient id="linear-gradient" x1="0.5" x2="0.5" y2="1" gradientUnits="objectBoundingBox">
      <stop offset="0" stop-color="#ff7753"/>
      <stop offset="1" stop-color="#ff5f6d"/>
    </linearGradient>
  </defs>
  <g id="Sem-resultado" transform="translate(-50 0.001)">
    <path id="Path_1" data-name="Path 1" d="M88.666,61.566A1.654,1.654,0,0,1,90.4,59.814c1.693,0,2.879.9,4.5,2.209l.1.041a.959.959,0,0,1,.478.428c.164.133.331.267.5.406a.838.838,0,0,1,.375.607.532.532,0,0,1-.063.247c-.493.952-.457.825-2.044.945C88.375,64.167,88.666,61.642,88.666,61.566Zm2.3,46.4c-.734,0-.583-1.124-1.563-1.124-1.557,0-2.518,1.931-4.895,1.931-1.758,0-2.406-1.6-3.558-1.6-.926,0-2.44,1.469-3.96,1.469-1.414,0-2.324-1.144-3.535-1.144-1.045,0-.946,1.18-1.615,1.18a.677.677,0,0,1-.646-.664,2.393,2.393,0,0,1,2.57-1.8h.029c1.892.16,2.028,1.039,3.212,1.039,1.382,0,2.336-1.436,3.934-1.436,1.783,0,2.445,1.593,3.6,1.593,1.789,0,2.834-1.926,4.794-1.926,1.109,0,2.283.7,2.283,1.786a.651.651,0,0,1-.652.692Zm16.892-71.311c2.486,0,3.15,3.827,3.892,5.544a.748.748,0,0,1,.067.3,1.113,1.113,0,0,1-.349.692.69.69,0,0,1-.535.274,4.053,4.053,0,0,1-1.318-.619c-2.969-1.96-3.067-2.26-3.6-3.934.138-2.261,1.612-2.261,1.841-2.261Zm58.353,4.218a1.809,1.809,0,0,1,2.033,1.747c0,3.185-4.705,4.433-6.3,4.528a1.114,1.114,0,0,1-1.021-1.11c-.006-.724,2.377-5.17,5.286-5.17ZM183.739,91.1l.062-.1a1.1,1.1,0,0,1-.016-.181c0-.568.585-3.008,4.017-3.2,1.733.217,1.356.2,1.535.2,1.317,0,2.056-3.138,4.113-3.138.986,0,1.7.645,2.256.645,1.275,0,2.1-3.158,3.96-3.158a2.154,2.154,0,0,1,1.359.621,1.022,1.022,0,0,1,.731.973c0,.9-.982.979-1.421,1.107a1.029,1.029,0,0,0-.3-.049c-.84,0-1.645,2.591-4.455,2.591-.24,0-.384-.019-.428-.019s-.087.006-.13.006h-.2c-2.617,0-2.085,2.946-6.083,2.946h-.113c-2.688,0-1.948.233-3.27,1.92a1,1,0,0,1-.785.41,1.02,1.02,0,0,1-1-1.015A1.05,1.05,0,0,1,183.739,91.1ZM88.223,77c.352,0,.536-.193.83-.193a.7.7,0,0,1,.655.576.687.687,0,0,1,.437-.262.971.971,0,0,1,.974.978c0,.436-7.823,18.4-7.835,18.429a.986.986,0,0,1-1.008.693c-.156,0-.3-.022-.5-.022s-.434.039-1.057.039c-5.287,0-10.693-3.082-12.284-3.9-10.591,24.74-8.877,21.185-10.589,32.967v2.217c1.25,5.475.2,16.029,13.624,23.742-.047-.749-.075-1.519-.075-2.315,0-4.81,2.814-33.213,35.565-39.469,0-.092.007-.181.007-.267,0-.157.236,1.51-5.352-35.56v-.288c0-.794-.024-1.591-.024-2.385,0-15.806,13.141-30.607,32.311-30.607,8.95,0,25.757,4.783,31.621,22.676.212.647,8.251,43.471,8.372,44.293,4.39,2.365,2.765,1.557,18.475,12.98,6.86-17.756,17.312-31.3,21.255-36.356-.164-.3-4.534-7.39-4.534-15.115,0-2.778,1.2-3.793,1.956-3.793,1.787,0,2.906,4.5,4.474,7.1a72.434,72.434,0,0,0,5.98-5.841,43.235,43.235,0,0,0-4.9-7.773c-7.9,3.6-17.566,8.657-18.437,8.657a1.236,1.236,0,0,1-.514-.114,22.878,22.878,0,0,1-13.3-21.128c0-6.691,2.515-10.863,2.515-11.455A48.623,48.623,0,0,0,173.52,19.215C160.021,8.629,154.47,7.487,146.663,6.7c-5.047,20.211-20.033,24.753-25.322,24.753-5.345,0-5.052-.519-13.027-12.1a1.136,1.136,0,0,1-.219-.645,1,1,0,0,1,.981-.961.908.908,0,0,1,.2.024,1.376,1.376,0,0,1,.976-.549,11.4,11.4,0,0,0,1.412.107,11.487,11.487,0,0,0,5.728-1.755,20.425,20.425,0,0,0,6.963-6.589C118.292,10.108,81.938,19.046,73.939,68.8,77.465,73.506,83.277,77,88.223,77Z" fill-rule="evenodd" opacity="0.2" fill="url(#linear-gradient)"/>
    <path id="Path_2" data-name="Path 2" d="M72.836,151.814v-.59c0-1.254,0-1.9-.007-2.422-.019.485-.033.971-.033,1.461C72.8,150.788,72.811,151.3,72.836,151.814Z" fill="#fff" fill-rule="evenodd"/>
    <path id="Path_3" data-name="Path 3" d="M87.745,78.707l.123-.285-.205-.028A1.661,1.661,0,0,1,87.745,78.707Z" fill="#fff" fill-rule="evenodd"/>
    <path id="Path_4" data-name="Path 4" d="M160.149,85.924a11.74,11.74,0,0,1-.293-1.382.69.69,0,0,1,.691-.692c.633,0,.693.68.952,1.441a2.952,2.952,0,0,0,2-3.119c0-.474-2.724-20.2-7.086-20.2-3.631,0-3.295,2.373-3.295,5.332,0,2.721,4.037,19.307,4.045,19.333Zm32.839,37.894a50.49,50.49,0,0,0-3.025,15.552c0,9.941,4.118,9.607,4.326,9.607,2.241,0,6.925-2.91,6.925-9.97,0-8.782-8.064-15.122-8.226-15.189Zm37.223-61.824a1,1,0,0,0-.111-.451c-4.636,2.538-12.367,12.963-14.8,12.963-1.332,0-1.672-2.361-3.948-6.573a2.5,2.5,0,0,0-.344-.39,3.7,3.7,0,0,0-.5,2.02c0,6.9,3.145,12.663,4.1,14.513a1.1,1.1,0,0,0,.766.618c11.493,3.065,10.666,2.961,11.084,2.961.708,0,1.162-.7,1.357-1.076,5.808-11.205,6.165-8.846,9.883-14.925a3.892,3.892,0,0,0,.244-.677c-2.589.6-6.566,4.954-7.979,4.954a.981.981,0,0,1-.979-.928c0-1.474,5.529-8.36,5.529-9.807a.285.285,0,0,0-.1-.207c-3.272,1.285-6.9,7.113-8.854,7.113a.847.847,0,0,1-.858-.871c0-1.073,3.31-4.948,3.949-6.013a15.52,15.52,0,0,0,1.561-3.224Zm-78.129,8.17a16.434,16.434,0,0,1-3.717.492c-7.849,0-10.9-6.481-17.581-6.481-1.223,0-1.736.326-4.169.326-6.245,0-9.183-4.491-10.406-6-8.032,7.238-8.136,18.866-8.136,21.554a54.787,54.787,0,0,0,3.568,18.518c.3.805.732.789,2.156.789a56.8,56.8,0,0,0,6.89-.869c.647,0,.1-1.568,5.59,19.544.394,1.513,5.35,3.316,11.317,3.316,6.987,0,17.034-2.459,23.878-9.371-1.2-4.275-9.384-41.792-9.39-41.818ZM163.4,112.23c-1.942,12.712-17.587,15.152-22.765,15.152-14.09,0-15.469-8.16-16.3-11.14-4.553.672-14.87,2.437-15.351,2.437-.853,0-.731,0-1.764-6.789C90.175,114.4,72.8,129.659,72.8,150.263c0,9.657,4.337,16.763,6.856,19.369,13.386,13.854,6.556,12.008,54.624,12.008.19,0,.381-.018.584-.029.046-.2.092-.05.092-1.966,0-30.063-37.369-48.642-37.369-49.4a.664.664,0,0,1,.669-.674c3.937,0,29.658,18.234,37.532,40.258.508.065,4.933.072,4.959.072,1.958,0,11.582-.078,12.951-.078,1.5,0,1.853.378,1.853.827,0,.581-7.658,12.354-8.437,12.354-.158,0-.654-.057-1.52-.057-1.948,0-2.554.246-3.446.246-98.144,0-89.854-.615-89.854-1.719,0-1.241,9.507-10.467,9.507-11.484v-.056c0-.019-.038-.572.918-.572.026,0,13.866.109,14.241.109.133,0,.269-.016.476-.028a33.963,33.963,0,0,1-6.037-19.5c0-4.81,2.814-33.213,35.566-39.469,0-.092.006-.181.006-.267,0-.158.236,1.509-5.352-35.56v-.288c0-.794-.024-1.591-.024-2.386,0-15.806,13.141-30.607,32.311-30.607,8.951,0,25.757,4.783,31.621,22.676.212.647,8.251,43.471,8.372,44.293,4.39,2.365,2.765,1.557,18.475,12.98,6.861-17.756,17.312-31.3,21.255-36.356-.164-.3-4.534-7.39-4.534-15.115,0-2.778,1.2-3.793,1.956-3.793,1.787,0,2.906,4.5,4.474,7.1,2.692-1.989,8.073-8.682,13.485-12.616a2.2,2.2,0,0,1,1.134-.382,1.538,1.538,0,0,1,1.479,1.7c0,2.059-2.771,5.413-3.447,6.522,1.432-1.394,4.608-4.926,6.6-4.926.418,0,1.153.222,1.153,1.48,0,1.829-2.144,4.594-4.834,8.585l.1.115c2.4-1.635,5.029-4.069,6.883-4.069a1.255,1.255,0,0,1,1.277,1.346c0,2.556-6.16,7.769-8.953,13.669-2.369,5-2.554,3.5-2.554,4.566,0,.75.9,2.763.9,21.114,0,48.49-11.492,58.457-14.714,58.457-.646,0-.754-.7-.754-.825,0-2.4,14.09,2.351,14.09-59.188,0-4.525-.308-12.9-.339-13.188-3.493-.766-4.041-.743-4.041-1.413a.644.644,0,0,1,.715-.651c.379,0,2.559.545,3.3.632-.078-1.658-.36-3.259-.442-4.882-.818-.262-11.436-3.156-11.664-3.156-.477,0-.38.046-3.121,3.656,2.282,1.109,4.157,1.187,4.157,2.059a.649.649,0,0,1-.672.654c-.445,0-2.878-1.07-4.374-1.507A136.4,136.4,0,0,0,193.5,122.277c3.055,2.861,9.116,8.406,9.116,16.837,0,6.722-4.5,11.274-8.294,11.274-5.6,0-5.765-9.17-5.765-11.04,0-6.7,2.035-12.641,3.282-16.589-.759-.647-13.165-9.851-17.573-12.737a.912.912,0,0,0-.521-.16C173.657,109.862,163.967,112.069,163.4,112.23Z" fill-rule="evenodd" opacity="0.6"/>
    <path id="Path_5" data-name="Path 5" d="M69.224,59.635c-.026.012-17.8,9.554-17.8,10.141,0,7.451,11.434,21.662,29.508,24.729l6.937-16.084C72.519,76.5,69.7,63.485,69.224,59.635ZM81.246,95.89h-.22C65.205,94.493,50,78.76,50,69.666a1.713,1.713,0,0,1,.909-1.519c20.5-11.365,19.213-10.7,19.582-10.7a.65.65,0,0,1,.668.628,6.611,6.611,0,0,0-.44,2.145c0,8.319,9.806,16.78,17.5,16.78.352,0,.536-.193.83-.193a.692.692,0,0,1,.665.668C89.718,77.76,82.289,95.89,81.246,95.89Z" fill-rule="evenodd" opacity="0.6"/>
    <path id="Path_6" data-name="Path 6" d="M187.663,45.915a23.11,23.11,0,0,0,10.523,19.394l21.048-9.523c-.3-.222-9.02-5.266-9.02-19.128a34.927,34.927,0,0,1,.76-6.831l-21.019,5.611a25.915,25.915,0,0,0-2.292,10.477Zm-1.444-.019a28.336,28.336,0,0,1,2.6-11.3c.249-.587,23.184-6.479,23.21-6.479a.644.644,0,0,1,.657.687,33.51,33.51,0,0,0-1.075,7.862c0,15.007,9.775,18.1,9.775,19.145a.867.867,0,0,1-.621.821c-6.377,2.863-22.408,10.2-22.628,10.2-.242,0-10.754-4.963-11.923-20.932Z" fill-rule="evenodd" opacity="0.6"/>
    <path id="Path_7" data-name="Path 7" d="M129.083,1.522a22.5,22.5,0,0,1-3.121,7.54c-6.41,10.043-14.644,9.718-14.792,9.752.279.392,6.537,8.749,6.848,8.809a19.275,19.275,0,0,0,4.115.563c13.252,0,21.467-18.879,21.98-22.1Zm-7.147,28.093a23.515,23.515,0,0,1-3.725-.449c-.25,0-.293.056-.487.056-.805,0-8.611-10.838-8.611-11.009,0-.532.7-.992,1.135-.992a10.059,10.059,0,0,0,7.14-1.648C126.221,10.5,127.445,1.278,128.281.2a.509.509,0,0,1,.429-.2c.026,0,17.008,4.747,17.008,5.662,0,.972-7.574,23.79-23.782,23.953Z" fill-rule="evenodd" opacity="0.6"/>
    <path id="Path_8" data-name="Path 8" d="M162.63,150.4c-.982-.678-6.106-5.026-9.5-5.026-1.2,0-1.884.5-1.884,2.033,0,5.606,8.894,15.092,11.721,17.057,7.937-5.122,12.725-13.323,12.725-17.712,0-2.839-1.87-2.864-2.586-2.864C169.5,143.888,165.088,148.064,162.63,150.4Zm1.514,14.991c.62.663,5.208,3.868,7.869,3.868a8.248,8.248,0,0,0,1.367-.252.684.684,0,0,1,.693.694c0,.885-1.879.957-2.1.957-6.981,0-22.1-15.283-22.1-23.244,0-1.365.455-3.42,3.2-3.42,3.854,0,8.969,4.213,9.454,4.572.945-.891,6.109-6.085,10.714-6.085.584,0,3.845.13,3.845,4.207,0,3.659-3.539,12.448-12.942,18.7Z" fill-rule="evenodd" opacity="0.6"/>
    <path id="Path_9" data-name="Path 9" d="M73.761,106.215h.029c1.892.16,2.028,1.038,3.212,1.038,1.382,0,2.336-1.435,3.934-1.435,1.783,0,2.445,1.593,3.6,1.593,1.789,0,2.834-1.926,4.794-1.926,1.109,0,2.283.7,2.283,1.786a.651.651,0,0,1-.648.691c-.734,0-.583-1.124-1.564-1.124-1.557,0-2.518,1.931-4.894,1.931-1.758,0-2.406-1.6-3.558-1.6-.926,0-2.44,1.47-3.96,1.47-1.414,0-2.324-1.145-3.535-1.145-1.045,0-.946,1.18-1.615,1.18a.676.676,0,0,1-.646-.663A2.393,2.393,0,0,1,73.761,106.215Z" fill-rule="evenodd" opacity="0.6"/>
    <path id="Path_10" data-name="Path 10" d="M187.8,87.627c1.733.218,1.357.2,1.536.2,1.317,0,2.056-3.138,4.113-3.138.986,0,1.7.645,2.255.645,1.275,0,2.1-3.158,3.961-3.158.8,0,1.741.8,1.741,1.266a.647.647,0,0,1-.629.639c-.49,0-.79-.517-1.141-.517-.874,0-1.806,3.118-3.868,3.118-1.037,0-1.685-.637-2.312-.637-1.172,0-1.932,3.146-4.054,3.146-.547,0-1.009-.2-1.772-.2a2.987,2.987,0,0,0-.839.113c-2.3.665-1.413,2.442-2.4,2.442-.1,0-.611-.045-.611-.72C183.785,90.256,184.369,87.815,187.8,87.627Z" fill-rule="evenodd" opacity="0.6"/>
    <path id="Path_11" data-name="Path 11" d="M162.4,45.635a8.253,8.253,0,0,0,2.479-.737,3.13,3.13,0,0,0,1.962-2.263c0-.22-.166-.367-.684-.367C164.671,42.267,163,44.713,162.4,45.635Zm-.46,1.509a1.114,1.114,0,0,1-1.021-1.11c0-.719,2.382-5.165,5.292-5.165a1.808,1.808,0,0,1,2.033,1.747c0,3.184-4.707,4.433-6.306,4.527Z" fill-rule="evenodd" opacity="0.6"/>
    <path id="Path_12" data-name="Path 12" d="M94.122,63.359c.028,0,.063-.038.169-.1-.491-.363-2.3-2.011-3.771-2.011-.137,0-.322.056-.354.132a.533.533,0,0,0-.036.2C90.129,62.681,93.462,63.359,94.122,63.359Zm.123,1.338c-5.87-.529-5.579-3.054-5.579-3.131A1.654,1.654,0,0,1,90.4,59.813c2.048,0,3.352,1.31,5.58,3.084a.837.837,0,0,1,.375.607.533.533,0,0,1-.063.247c-.492.949-.46.826-2.047.949Z" fill-rule="evenodd" opacity="0.6"/>
    <path id="Path_13" data-name="Path 13" d="M109.99,41.326c-.758-2.975-2.015-3.256-2.094-3.256-.415,0-.449.6-.449.675C107.447,39.98,109.78,41.2,109.99,41.326Zm-3.98-2.417c.143-2.259,1.617-2.259,1.846-2.259,2.486,0,3.151,3.827,3.893,5.544a.749.749,0,0,1,.067.3,1.111,1.111,0,0,1-.351.692.686.686,0,0,1-.534.274,4.05,4.05,0,0,1-1.317-.618c-2.969-1.959-3.068-2.26-3.6-3.933Z" fill-rule="evenodd" opacity="0.6"/>
    <path id="Path_14" data-name="Path 14" d="M135.339,94.022c-.083-2.4-1.566-2.722-1.846-2.722-.848,0-1.241.988-1.241,1.822,0,1.2.9,2.52,1.851,2.52C135.147,95.642,135.284,94.258,135.339,94.022Zm-4.474-.627c0-3.557,2.555-3.51,2.616-3.51.477,0,3.242.55,3.242,4.116,0,1-.636,3.039-2.615,3.039-2.543,0-3.243-3.035-3.243-3.64Z" fill-rule="evenodd" opacity="0.6"/>
    <path id="Path_15" data-name="Path 15" d="M122.715,70.791a.688.688,0,0,1,.657.728v.07a1.076,1.076,0,0,1-.153.322c-3.54,3.885-3.45,3.839-3.864,3.839a.7.7,0,0,1-.663-.657c0-.158.058-.365.43-.772C122.209,70.944,122.29,70.791,122.715,70.791Z" fill-rule="evenodd" opacity="0.6"/>
    <path id="Path_16" data-name="Path 16" d="M137.255,71.342h-.025c-4.751-1.032-4.961-1.152-4.961-1.746a.683.683,0,0,1,.7-.682,2.012,2.012,0,0,1,.458.071c4.125.988,4.6.964,4.6,1.668a.715.715,0,0,1-.772.689Z" fill-rule="evenodd" opacity="0.6"/>
    <path id="Path_17" data-name="Path 17" d="M123.373,79.7a.666.666,0,0,1,.687-.712.659.659,0,0,1,.662.5c.008.026.815,2.609.815,2.918a.677.677,0,0,1-.684.674.732.732,0,0,1-.661-.509C124.181,82.54,123.373,80.02,123.373,79.7Z" fill-rule="evenodd" opacity="0.6"/>
    <path id="Path_18" data-name="Path 18" d="M124.429,86.647a1.85,1.85,0,0,1-.386-.144c-2.058-1.247-2.314-1.371-2.314-1.844a.69.69,0,0,1,.677-.7.67.67,0,0,1,.335.091c2.581,1.481,2.43,1.616,2.43,1.881a.706.706,0,0,1-.742.711Z" fill-rule="evenodd" opacity="0.6"/>
    <path id="Path_19" data-name="Path 19" d="M133.669,77.252a.694.694,0,0,1,.686-.74.686.686,0,0,1,.6.371,19.279,19.279,0,0,1,.736,2.647.677.677,0,0,1-.676.709.7.7,0,0,1-.6-.376,25.555,25.555,0,0,1-.746-2.611Z" fill-rule="evenodd" opacity="0.6"/>
    <path id="Path_20" data-name="Path 20" d="M137.767,82.836a.733.733,0,0,1-.775-.681c0-.181.046-.46,1.3-1.963a.606.606,0,0,1,.474-.222.718.718,0,0,1,.713.683.68.68,0,0,1-.118.375C138.1,82.955,138.028,82.7,137.767,82.836Z" fill-rule="evenodd" opacity="0.6"/>
    <path id="Path_21" data-name="Path 21" d="M158.725,76.414c2.291.2,2.421,4.219,2.421,4.548a.737.737,0,0,1-.7.8c-1.282,0-.292-2.389-1.556-3.831a1.533,1.533,0,0,1-.827.4c-.311,0-.544-.238-.62-.688-.1-.6-1.047-8.75-1.047-8.911a.717.717,0,0,1,.7-.783C158.273,67.943,157.709,70.157,158.725,76.414Z" fill-rule="evenodd" opacity="0.6"/>
    <path id="Path_22" data-name="Path 22" d="M63.855,71.823a7.269,7.269,0,0,0,2.764.91c.454,0,.708-.121.708-.486,0-.779-.689-1.413-1.821-1.413C64.956,70.833,63.863,71.078,63.855,71.823Zm2.962,2.25c-.534,0-1.077-.107-1.743-.173,3.111,2.776,6.2,4.182,6.2,4.944a1.319,1.319,0,0,1-.357.736c1.987.347,2.763.317,2.763,1.114a1.07,1.07,0,0,1-.262.653c2.772,1.918,4.632,2.13,4.766,2.66a16.012,16.012,0,0,0,.563,1.6.62.62,0,0,1-.643.517c-1.213,0-1.277-1.337-1.293-1.418-3.86-1.663-4.56-2.29-4.894-3.539-.7-.148-3.388-.558-3.388-1.752a1.823,1.823,0,0,1,.3-.878c-4.45-3.23-5.425-4.1-6.142-5.633-.238-.508-2.445-1.506-2.445-2.385a.6.6,0,0,1,.571-.58c.454,0,.635.537,1.712,1.207a3.185,3.185,0,0,1,3-1.664,2.927,2.927,0,0,1,3.163,2.8,1.765,1.765,0,0,1-1.871,1.791Z" fill-rule="evenodd" opacity="0.6"/>
    <path id="Path_23" data-name="Path 23" d="M195.415,48.23a6.038,6.038,0,0,0-.078-.973,3.038,3.038,0,0,0-.705,2.067A2.215,2.215,0,0,0,195,50.682,8.574,8.574,0,0,0,195.415,48.23ZM204,49.369a1.294,1.294,0,0,1-.717-.247c-.493.619-.876,1.333-1.707,1.333a1.7,1.7,0,0,1-.335-.035c-.3.422-.633,1.011-1.18,1.011-.508,0-.748-.5-.991-.872-.9,1.026-1.834,2-3.331,2h-.053c-.48.951-.611,1.382-1.051,1.382a.59.59,0,0,1-.6-.614c0-.262.087-.356.387-1.064a3.678,3.678,0,0,1-1.15-2.742c0-1.822.735-3.673,2.053-3.673,1.533,0,1.455,2.16,1.455,2.352a10.452,10.452,0,0,1-.5,2.859c1.209-.1,2.52-2.935,3.379-2.935.4,0,.609.4.793.709a2.181,2.181,0,0,1,.621-.189,2.808,2.808,0,0,1,.72.215c.849-1.337.969-1.773,1.468-1.773.455,0,.781.561.89.716,1.454-1.643,1.434-1.78,1.825-1.78a.664.664,0,0,1,.653.652,1.341,1.341,0,0,1-.347.734C204.8,49.073,204.544,49.369,204,49.369Z" fill-rule="evenodd" opacity="0.6"/>
    <path id="Path_24" data-name="Path 24" d="M122.337,19.679c.608-.1.842-.2.842-.474a1.075,1.075,0,0,0-.076-.344A1.476,1.476,0,0,0,122.337,19.679Zm2.231-1.249c3.289-2.788,3.33-2.93,3.867-2.93a1.13,1.13,0,0,1,.442.1c.79-1.563.9-2.056,1.419-2.056a.859.859,0,0,1,.548.246,1.256,1.256,0,0,1,.182.294c2.892-2.987.978-2.472,3.178-5.411a.537.537,0,0,1,.441-.229.682.682,0,0,1,.684.66c0,.638-.765.968-.97,1.986-.434,2.153-2.459,4.476-3.434,4.476a1.178,1.178,0,0,1-.414-.078c-.795,1.257-1.055,1.815-1.707,1.815a2.525,2.525,0,0,1-.673-.122c-1.641,1.4-2.063,1.686-3.383,2.8-.739.625-1.394,2.525-2.573,2.525-.83,0-1.04-.886-1.04-1.051a1.084,1.084,0,0,1,.2-.587,1.591,1.591,0,0,1-.445-1.06,2.742,2.742,0,0,1,2.351-2.342C123.959,17.464,124.3,18.072,124.568,18.43Z" fill-rule="evenodd" opacity="0.6"/>
    <path id="Path_25" data-name="Path 25" d="M173.1,143.888c-3.6,0-8.014,4.176-10.472,6.512-.981-.678-6.106-5.026-9.5-5.026-1.2,0-1.884.5-1.884,2.033,0,5.606,8.894,15.092,11.721,17.057a33.176,33.176,0,0,0,6.993-6.083l.018-.021c.135-.156.266-.312.4-.468.053-.063.106-.126.158-.19,3.307-4.019,5.159-8.221,5.159-10.95C175.688,143.913,173.818,143.888,173.1,143.888Z" fill="#ffe0e0" fill-rule="evenodd"/>
  </g>
</svg>
